<svg id="svg" version="1.1" xmlns="http://www.w3.org/2000/svg" xmlns:xlink="http://www.w3.org/1999/xlink" width="400" height="65.625" viewBox="0, 0, 400,65.625"><g id="svgg"><path id="path0" d="M157.288 14.100 C 156.942 14.225,156.497 14.479,156.298 14.664 C 156.100 14.849,155.889 15.000,155.830 15.000 C 155.771 15.000,155.623 15.188,155.500 15.417 C 155.377 15.646,155.205 15.833,155.116 15.833 C 154.937 15.833,154.167 16.679,154.167 16.875 C 154.167 16.944,154.042 17.000,153.889 17.000 C 153.736 17.000,153.658 17.046,153.714 17.103 C 153.771 17.160,153.709 17.315,153.575 17.448 C 153.442 17.582,153.333 17.831,153.333 18.002 C 153.333 18.173,153.258 18.360,153.167 18.417 C 152.959 18.545,152.947 19.119,153.151 19.194 C 153.234 19.225,153.327 19.475,153.357 19.750 C 153.389 20.044,153.636 20.469,153.956 20.780 C 154.255 21.072,154.500 21.391,154.500 21.489 C 154.500 21.587,154.556 21.667,154.625 21.667 C 154.838 21.667,155.667 22.445,155.667 22.644 C 155.667 22.748,155.723 22.833,155.792 22.834 C 156.005 22.834,156.833 23.612,156.833 23.811 C 156.833 23.915,156.890 24.000,156.958 24.000 C 157.171 24.001,158.000 24.778,158.000 24.978 C 158.000 25.082,158.056 25.167,158.125 25.167 C 158.338 25.167,159.167 25.945,159.167 26.144 C 159.167 26.248,159.245 26.333,159.341 26.333 C 159.567 26.333,160.333 27.100,160.333 27.326 C 160.333 27.422,160.418 27.500,160.522 27.500 C 160.722 27.500,161.499 28.329,161.500 28.542 C 161.500 28.610,161.585 28.667,161.689 28.667 C 161.888 28.667,162.666 29.495,162.666 29.708 C 162.667 29.777,162.741 29.833,162.831 29.833 C 162.997 29.833,164.667 31.423,164.667 31.581 C 164.667 31.735,160.644 35.667,160.487 35.667 C 160.402 35.667,160.333 35.723,160.333 35.792 C 160.333 35.988,159.563 36.833,159.384 36.833 C 159.295 36.833,159.127 37.013,159.010 37.232 C 158.893 37.451,158.617 37.726,158.398 37.843 C 158.179 37.960,158.000 38.129,158.000 38.217 C 158.000 38.396,157.155 39.166,156.958 39.166 C 156.890 39.167,156.833 39.252,156.833 39.356 C 156.833 39.555,156.005 40.333,155.792 40.333 C 155.723 40.333,155.667 40.418,155.667 40.522 C 155.667 40.722,154.838 41.499,154.625 41.500 C 154.556 41.500,154.500 41.574,154.500 41.664 C 154.500 41.754,154.237 42.098,153.917 42.428 C 153.357 43.005,153.333 43.078,153.333 44.262 L 153.333 45.495 154.993 47.159 C 155.905 48.075,156.849 48.873,157.091 48.933 C 157.847 49.123,159.286 48.891,159.691 48.513 C 159.896 48.322,160.124 48.167,160.198 48.167 C 160.272 48.167,160.333 48.086,160.333 47.988 C 160.333 47.753,160.759 47.333,160.998 47.333 C 161.102 47.333,161.140 47.258,161.083 47.167 C 161.027 47.075,161.097 47.000,161.240 47.000 C 161.383 47.000,161.500 46.920,161.500 46.821 C 161.500 46.627,161.910 46.167,162.083 46.167 C 162.222 46.167,162.667 45.722,162.667 45.583 C 162.667 45.444,163.111 45.000,163.250 45.000 C 163.389 45.000,163.833 44.556,163.833 44.417 C 163.833 44.278,164.278 43.833,164.417 43.833 C 164.556 43.833,165.000 43.389,165.000 43.250 C 165.000 43.111,165.444 42.667,165.583 42.667 C 165.756 42.667,166.167 42.206,166.167 42.012 C 166.167 41.914,166.223 41.833,166.292 41.833 C 166.488 41.833,167.333 41.063,167.333 40.884 C 167.333 40.795,167.521 40.623,167.750 40.500 C 167.979 40.377,168.167 40.173,168.167 40.045 C 168.167 39.918,168.242 39.860,168.333 39.917 C 168.425 39.973,168.500 39.915,168.500 39.788 C 168.500 39.661,168.688 39.456,168.917 39.333 C 169.146 39.211,169.333 39.006,169.333 38.879 C 169.333 38.751,169.408 38.693,169.500 38.750 C 169.592 38.807,169.667 38.736,169.667 38.593 C 169.667 38.450,169.747 38.333,169.845 38.333 C 170.080 38.333,170.500 37.908,170.500 37.669 C 170.500 37.565,170.575 37.527,170.667 37.583 C 170.758 37.640,170.833 37.569,170.833 37.427 C 170.833 37.284,170.950 37.167,171.093 37.167 C 171.236 37.167,171.307 37.092,171.250 37.000 C 171.193 36.908,171.232 36.833,171.335 36.833 C 171.574 36.833,172.000 36.414,172.000 36.179 C 172.000 36.080,172.117 36.000,172.260 36.000 C 172.403 36.000,172.473 35.925,172.417 35.833 C 172.360 35.742,172.398 35.667,172.502 35.667 C 172.741 35.667,173.167 35.247,173.167 35.012 C 173.167 34.914,173.261 34.833,173.377 34.833 C 173.493 34.833,173.737 34.633,173.919 34.388 C 174.101 34.142,174.395 33.805,174.573 33.638 C 174.751 33.470,174.836 33.333,174.762 33.333 C 174.689 33.333,174.736 33.165,174.867 32.958 C 175.161 32.495,175.257 31.060,175.013 30.766 C 174.915 30.647,174.817 30.342,174.796 30.088 C 174.775 29.835,174.662 29.590,174.545 29.546 C 174.429 29.501,174.333 29.394,174.333 29.308 C 174.333 29.095,173.558 28.333,173.341 28.333 C 173.245 28.333,173.167 28.255,173.167 28.159 C 173.167 27.933,172.400 27.167,172.174 27.167 C 172.078 27.167,172.000 27.088,172.000 26.992 C 172.000 26.766,171.234 26.000,171.008 26.000 C 170.912 26.000,170.833 25.920,170.833 25.821 C 170.833 25.586,170.408 25.167,170.169 25.167 C 170.065 25.167,170.027 25.092,170.083 25.000 C 170.140 24.908,170.069 24.833,169.927 24.833 C 169.784 24.833,169.667 24.755,169.667 24.659 C 169.667 24.433,168.900 23.667,168.674 23.667 C 168.578 23.667,168.500 23.582,168.500 23.478 C 168.500 23.278,167.671 22.501,167.458 22.500 C 167.390 22.500,167.333 22.415,167.333 22.311 C 167.333 22.112,166.505 21.334,166.292 21.334 C 166.223 21.333,166.167 21.248,166.167 21.144 C 166.167 20.945,165.338 20.167,165.125 20.167 C 165.056 20.167,165.000 20.086,165.000 19.988 C 165.000 19.794,164.590 19.333,164.417 19.333 C 164.278 19.333,163.833 18.889,163.833 18.750 C 163.833 18.611,163.389 18.167,163.250 18.167 C 163.111 18.167,162.667 17.722,162.667 17.583 C 162.667 17.410,162.206 17.000,162.012 17.000 C 161.914 17.000,161.833 16.944,161.833 16.875 C 161.833 16.662,161.055 15.833,160.856 15.833 C 160.752 15.833,160.667 15.777,160.666 15.708 C 160.666 15.503,159.892 14.667,159.703 14.667 C 159.607 14.667,159.503 14.596,159.472 14.510 C 159.442 14.424,159.198 14.314,158.931 14.266 C 158.664 14.218,158.368 14.101,158.273 14.006 C 158.073 13.806,158.108 13.803,157.288 14.100 M78.333 34.790 L 78.333 46.417 84.284 46.369 C 87.557 46.342,90.256 46.300,90.282 46.274 C 90.308 46.248,90.332 41.057,90.336 34.738 L 90.342 23.250 84.338 23.206 L 78.333 23.163 78.333 34.790 M268.250 27.333 C 268.193 27.425,267.997 27.500,267.814 27.500 C 267.630 27.500,267.527 27.575,267.583 27.667 C 267.640 27.758,267.602 27.833,267.500 27.833 C 267.398 27.833,267.355 27.900,267.405 27.981 C 267.455 28.062,267.385 28.222,267.248 28.335 C 266.958 28.576,266.868 36.833,267.155 36.833 C 267.241 36.833,267.358 36.983,267.417 37.167 C 267.475 37.350,267.632 37.500,267.766 37.500 C 267.901 37.500,268.054 37.612,268.106 37.750 C 268.266 38.166,320.753 38.125,321.485 37.708 C 321.767 37.548,321.998 37.293,321.999 37.143 C 322.000 36.992,322.115 36.825,322.255 36.771 C 322.616 36.633,322.612 28.333,322.251 28.333 C 322.126 28.333,321.999 28.165,321.970 27.958 C 321.936 27.716,321.783 27.564,321.539 27.530 C 321.332 27.500,321.205 27.407,321.257 27.321 C 321.316 27.226,311.117 27.167,294.853 27.167 C 277.366 27.167,268.318 27.223,268.250 27.333 " stroke="none" fill="#fc2404" fill-rule="evenodd"></path><path id="path1" d="M212.000 7.833 C 212.000 7.928,211.503 8.000,210.843 8.000 C 210.207 8.000,209.640 8.075,209.583 8.167 C 209.527 8.258,209.147 8.333,208.740 8.333 C 208.193 8.333,208.000 8.399,208.000 8.583 C 208.000 8.758,207.824 8.833,207.417 8.833 C 207.096 8.833,206.833 8.908,206.833 9.000 C 206.833 9.092,206.646 9.167,206.417 9.167 C 206.188 9.167,206.000 9.242,206.000 9.333 C 206.000 9.425,205.850 9.500,205.667 9.500 C 205.481 9.500,205.333 9.611,205.333 9.750 C 205.333 9.899,205.180 10.000,204.953 10.000 C 204.745 10.000,204.465 10.150,204.333 10.333 C 204.201 10.517,203.998 10.667,203.881 10.667 C 203.765 10.667,203.500 10.928,203.293 11.248 C 203.086 11.568,202.823 11.830,202.708 11.831 C 202.594 11.832,202.500 11.929,202.500 12.047 C 202.500 12.164,202.350 12.368,202.167 12.500 C 201.983 12.632,201.833 12.836,201.833 12.953 C 201.833 13.071,201.764 13.167,201.679 13.167 C 201.501 13.167,201.000 14.108,201.000 14.442 C 201.000 14.566,200.925 14.667,200.833 14.667 C 200.742 14.667,200.667 14.884,200.667 15.149 C 200.667 15.424,200.559 15.672,200.417 15.727 C 200.261 15.787,200.167 16.041,200.167 16.402 C 200.167 16.720,200.092 17.027,200.000 17.083 C 199.908 17.140,199.833 17.654,199.833 18.227 C 199.833 18.813,199.746 19.354,199.633 19.467 C 199.353 19.747,199.353 24.201,199.633 24.294 C 199.763 24.338,199.833 24.765,199.833 25.514 C 199.833 26.171,199.905 26.667,200.000 26.667 C 200.092 26.667,200.167 26.996,200.167 27.399 C 200.167 27.896,200.247 28.162,200.417 28.227 C 200.554 28.280,200.667 28.475,200.667 28.661 C 200.667 28.848,200.742 29.000,200.833 29.000 C 200.925 29.000,201.000 29.188,201.000 29.417 C 201.000 29.646,201.075 29.833,201.167 29.833 C 201.258 29.833,201.333 29.986,201.333 30.172 C 201.333 30.358,201.446 30.554,201.583 30.606 C 201.721 30.659,201.833 30.844,201.833 31.018 C 201.833 31.191,201.896 31.333,201.972 31.333 C 202.048 31.333,202.211 31.521,202.333 31.750 C 202.456 31.979,202.624 32.167,202.707 32.167 C 202.879 32.167,203.333 32.590,203.333 32.750 C 203.333 32.923,203.794 33.333,203.988 33.333 C 204.086 33.333,204.167 33.408,204.167 33.500 C 204.167 33.592,204.317 33.667,204.500 33.667 C 204.685 33.667,204.833 33.778,204.833 33.917 C 204.833 34.054,204.946 34.167,205.083 34.167 C 205.221 34.167,205.333 34.242,205.333 34.333 C 205.333 34.425,205.483 34.500,205.667 34.500 C 205.850 34.500,206.000 34.575,206.000 34.667 C 206.000 34.758,206.179 34.833,206.399 34.833 C 206.618 34.833,206.841 34.946,206.894 35.083 C 206.946 35.221,207.142 35.333,207.328 35.333 C 207.514 35.333,207.667 35.408,207.667 35.500 C 207.667 35.592,207.925 35.667,208.240 35.667 C 208.556 35.667,208.860 35.742,208.917 35.833 C 208.973 35.925,209.283 36.000,209.605 36.000 C 209.927 36.000,210.303 36.112,210.440 36.250 C 210.618 36.427,211.050 36.500,211.929 36.500 C 212.643 36.500,213.167 36.571,213.167 36.667 C 213.167 36.771,214.163 36.833,215.823 36.833 C 217.415 36.833,218.522 36.900,218.583 37.000 C 218.646 37.101,219.938 37.169,221.885 37.172 C 224.433 37.176,225.149 37.227,225.407 37.422 C 225.666 37.618,226.387 37.667,229.032 37.667 C 231.122 37.667,232.333 37.728,232.333 37.833 C 232.333 37.939,233.556 38.000,235.667 38.000 C 237.778 38.000,239.000 38.061,239.000 38.167 C 239.000 38.271,240.057 38.333,241.839 38.333 C 244.208 38.333,244.693 38.375,244.773 38.583 C 244.832 38.738,245.086 38.833,245.434 38.833 C 245.746 38.833,246.000 38.908,246.000 39.000 C 246.000 39.092,246.118 39.167,246.262 39.167 C 246.592 39.167,246.922 39.492,247.073 39.966 C 247.137 40.168,247.259 40.333,247.345 40.333 C 247.430 40.333,247.500 40.596,247.500 40.917 C 247.500 41.237,247.575 41.500,247.667 41.500 C 247.758 41.500,247.833 41.908,247.833 42.407 C 247.833 42.906,247.758 43.360,247.667 43.417 C 247.575 43.473,247.500 43.665,247.500 43.842 C 247.500 44.228,246.865 45.000,246.548 45.000 C 246.424 45.000,246.280 45.112,246.227 45.250 C 246.156 45.436,245.859 45.500,245.066 45.500 C 244.466 45.500,244.000 45.573,244.000 45.667 C 244.000 45.777,236.479 45.833,221.769 45.833 L 199.539 45.833 199.444 46.198 C 199.325 46.652,199.497 47.978,199.690 48.098 C 199.769 48.146,199.833 48.519,199.833 48.927 C 199.833 49.334,199.908 49.667,200.000 49.667 C 200.092 49.667,200.167 49.929,200.167 50.250 C 200.167 50.657,200.242 50.833,200.417 50.833 C 200.554 50.833,200.667 50.969,200.667 51.135 C 200.667 51.301,200.817 51.598,201.000 51.795 C 201.183 51.992,201.333 52.258,201.333 52.386 C 201.333 52.515,201.521 52.761,201.750 52.933 C 201.979 53.105,202.167 53.308,202.167 53.385 C 202.167 53.548,202.595 54.000,202.750 54.000 C 202.895 54.000,203.333 54.447,203.333 54.595 C 203.333 54.791,203.896 55.156,204.208 55.161 C 204.369 55.164,204.500 55.242,204.500 55.333 C 204.500 55.425,204.688 55.500,204.917 55.500 C 205.176 55.500,205.333 55.594,205.333 55.750 C 205.333 55.889,205.481 56.000,205.667 56.000 C 205.850 56.000,206.000 56.075,206.000 56.167 C 206.000 56.258,206.262 56.333,206.583 56.333 C 206.904 56.333,207.167 56.408,207.167 56.500 C 207.167 56.610,214.250 56.667,228.083 56.667 C 241.917 56.667,249.000 56.610,249.000 56.500 C 249.000 56.407,249.444 56.333,250.000 56.333 C 250.556 56.333,251.000 56.259,251.000 56.167 C 251.000 56.075,251.227 56.000,251.505 56.000 C 251.801 56.000,252.050 55.896,252.106 55.750 C 252.159 55.612,252.382 55.500,252.601 55.500 C 252.821 55.500,253.000 55.425,253.000 55.333 C 253.000 55.242,253.135 55.167,253.300 55.167 C 253.697 55.167,254.497 54.789,254.499 54.602 C 254.500 54.403,255.028 54.012,255.304 54.005 C 255.571 53.999,256.000 53.592,256.000 53.345 C 256.000 53.247,256.095 53.167,256.210 53.167 C 256.326 53.167,256.570 52.967,256.752 52.722 C 256.934 52.478,257.159 52.197,257.252 52.097 C 257.595 51.730,258.000 51.004,258.000 50.756 C 258.000 50.615,258.075 50.500,258.167 50.500 C 258.258 50.500,258.333 50.313,258.333 50.083 C 258.333 49.824,258.428 49.667,258.583 49.667 C 258.739 49.667,258.833 49.509,258.833 49.250 C 258.833 49.021,258.908 48.833,259.000 48.833 C 259.092 48.833,259.167 48.496,259.167 48.083 C 259.167 47.671,259.242 47.333,259.333 47.333 C 259.431 47.333,259.500 46.774,259.500 45.988 C 259.500 45.015,259.569 44.574,259.750 44.393 C 259.939 44.204,260.000 43.737,260.000 42.488 C 260.000 41.128,259.955 40.833,259.750 40.833 C 259.547 40.833,259.500 40.565,259.500 39.417 C 259.500 38.583,259.431 38.000,259.333 38.000 C 259.242 38.000,259.167 37.662,259.167 37.250 C 259.167 36.837,259.092 36.500,259.000 36.500 C 258.908 36.500,258.833 36.313,258.833 36.083 C 258.833 35.824,258.739 35.667,258.583 35.667 C 258.428 35.667,258.333 35.509,258.333 35.250 C 258.333 35.021,258.258 34.833,258.167 34.833 C 258.075 34.833,258.000 34.683,258.000 34.500 C 258.000 34.317,257.925 34.167,257.833 34.167 C 257.742 34.167,257.667 33.979,257.667 33.750 C 257.667 33.521,257.586 33.333,257.488 33.333 C 257.294 33.333,256.833 32.923,256.833 32.750 C 256.833 32.577,256.373 32.167,256.179 32.167 C 256.080 32.167,256.000 32.110,256.000 32.042 C 255.999 31.829,255.222 31.000,255.022 31.000 C 254.918 31.000,254.833 30.925,254.833 30.833 C 254.833 30.742,254.717 30.667,254.575 30.667 C 254.433 30.667,254.144 30.479,253.931 30.250 C 253.719 30.021,253.385 29.833,253.189 29.833 C 252.993 29.833,252.833 29.758,252.833 29.667 C 252.833 29.575,252.678 29.500,252.488 29.500 C 252.298 29.500,252.030 29.388,251.893 29.250 C 251.755 29.113,251.498 29.000,251.321 29.000 C 251.145 29.000,251.000 28.925,251.000 28.833 C 251.000 28.742,250.625 28.667,250.167 28.667 C 249.708 28.667,249.333 28.592,249.333 28.500 C 249.333 28.408,249.004 28.333,248.601 28.333 C 248.104 28.333,247.838 28.253,247.773 28.083 C 247.696 27.881,247.311 27.833,245.765 27.833 C 244.670 27.833,243.809 27.762,243.750 27.667 C 243.687 27.564,242.332 27.500,240.240 27.500 C 238.080 27.500,236.833 27.439,236.833 27.333 C 236.833 27.228,235.635 27.167,233.571 27.167 C 230.894 27.167,230.265 27.122,230.060 26.917 C 229.854 26.711,229.218 26.667,226.488 26.667 C 224.385 26.667,223.167 26.606,223.167 26.500 C 223.167 26.394,221.948 26.333,219.843 26.333 C 217.807 26.333,216.480 26.269,216.417 26.167 C 216.360 26.075,215.756 26.000,215.073 26.000 C 214.082 26.000,213.833 25.950,213.833 25.750 C 213.833 25.594,213.676 25.500,213.417 25.500 C 213.188 25.500,213.000 25.425,213.000 25.333 C 213.000 25.242,212.850 25.167,212.667 25.167 C 212.443 25.167,212.333 25.056,212.333 24.828 C 212.333 24.642,212.221 24.446,212.083 24.394 C 211.946 24.341,211.833 24.156,211.833 23.982 C 211.833 23.809,211.758 23.667,211.667 23.667 C 211.569 23.667,211.500 23.083,211.500 22.250 C 211.500 21.417,211.569 20.833,211.667 20.833 C 211.758 20.833,211.833 20.646,211.833 20.417 C 211.833 20.188,211.929 20.000,212.047 20.000 C 212.164 20.000,212.368 19.850,212.500 19.667 C 212.632 19.483,212.906 19.333,213.108 19.333 C 213.311 19.333,213.589 19.221,213.726 19.083 C 213.946 18.864,216.755 18.833,236.988 18.833 L 260.000 18.833 260.000 17.828 C 260.000 17.088,259.934 16.798,259.750 16.727 C 259.567 16.657,259.500 16.368,259.500 15.649 C 259.500 15.105,259.426 14.667,259.333 14.667 C 259.242 14.667,259.167 14.528,259.167 14.359 C 259.167 13.959,258.687 13.000,258.488 13.000 C 258.403 13.000,258.333 12.850,258.333 12.667 C 258.333 12.483,258.272 12.333,258.198 12.333 C 258.123 12.333,257.959 12.071,257.833 11.750 C 257.707 11.429,257.506 11.167,257.386 11.167 C 257.265 11.167,257.167 11.088,257.167 10.992 C 257.167 10.807,256.418 10.000,256.246 10.000 C 256.189 10.000,256.038 9.906,255.911 9.792 C 255.358 9.296,255.170 9.167,255.005 9.167 C 254.794 9.167,254.185 8.831,253.870 8.542 C 253.745 8.427,253.461 8.333,253.238 8.333 C 253.015 8.333,252.833 8.258,252.833 8.167 C 252.833 8.075,252.496 8.000,252.083 8.000 C 251.671 8.000,251.333 7.925,251.333 7.833 C 251.333 7.723,244.667 7.667,231.667 7.667 C 218.667 7.667,212.000 7.723,212.000 7.833 M269.333 8.167 C 269.333 8.258,269.181 8.333,268.995 8.333 C 268.809 8.333,268.613 8.446,268.560 8.583 C 268.508 8.721,268.361 8.833,268.234 8.833 C 267.856 8.833,267.333 9.381,267.333 9.777 C 267.333 9.981,267.258 10.193,267.167 10.250 C 267.064 10.314,267.000 11.752,267.000 14.010 C 267.000 16.337,267.061 17.667,267.167 17.667 C 267.258 17.667,267.333 17.800,267.333 17.963 C 267.333 18.306,267.890 18.833,268.252 18.833 C 268.388 18.833,268.500 18.946,268.500 19.083 C 268.500 19.305,271.546 19.333,294.917 19.333 C 318.287 19.333,321.333 19.305,321.333 19.083 C 321.333 18.944,321.481 18.833,321.667 18.833 C 321.850 18.833,322.000 18.758,322.000 18.667 C 322.000 18.575,322.080 18.500,322.179 18.500 C 322.778 18.500,322.833 18.107,322.833 13.823 L 322.833 9.622 322.375 9.228 C 322.123 9.011,321.860 8.834,321.792 8.834 C 321.723 8.833,321.667 8.721,321.667 8.583 C 321.667 8.428,321.509 8.333,321.250 8.333 C 321.021 8.333,320.833 8.258,320.833 8.167 C 320.833 8.056,312.139 8.000,295.083 8.000 C 278.028 8.000,269.333 8.056,269.333 8.167 M341.250 8.167 C 341.193 8.258,340.814 8.333,340.407 8.333 C 339.860 8.333,339.667 8.399,339.667 8.583 C 339.667 8.757,339.492 8.833,339.093 8.833 C 338.778 8.833,338.473 8.908,338.417 9.000 C 338.360 9.092,338.093 9.167,337.823 9.167 C 337.554 9.167,337.333 9.242,337.333 9.333 C 337.333 9.425,337.194 9.500,337.023 9.500 C 336.853 9.500,336.573 9.688,336.400 9.917 C 336.228 10.146,335.974 10.336,335.835 10.339 C 335.508 10.346,335.000 10.733,335.000 10.977 C 335.000 11.081,334.922 11.167,334.826 11.167 C 334.640 11.167,333.833 11.915,333.833 12.088 C 333.833 12.144,333.740 12.295,333.625 12.423 C 333.130 12.974,333.000 13.163,333.000 13.326 C 333.000 13.422,332.925 13.500,332.833 13.500 C 332.742 13.500,332.667 13.678,332.667 13.896 C 332.667 14.114,332.554 14.386,332.417 14.500 C 332.279 14.614,332.167 14.848,332.167 15.020 C 332.167 15.193,332.092 15.333,332.000 15.333 C 331.908 15.333,331.833 15.633,331.833 16.000 C 331.833 16.367,331.758 16.667,331.667 16.667 C 331.572 16.667,331.500 17.161,331.500 17.816 C 331.500 18.683,331.439 18.988,331.250 19.060 C 331.031 19.144,331.000 20.791,331.000 32.483 C 331.000 44.107,331.032 45.841,331.250 46.060 C 331.412 46.222,331.500 46.635,331.500 47.238 C 331.500 47.749,331.575 48.167,331.667 48.167 C 331.758 48.167,331.833 48.504,331.833 48.917 C 331.833 49.329,331.908 49.667,332.000 49.667 C 332.092 49.667,332.167 49.854,332.167 50.083 C 332.167 50.343,332.261 50.500,332.417 50.500 C 332.572 50.500,332.667 50.657,332.667 50.917 C 332.667 51.146,332.742 51.333,332.833 51.333 C 332.925 51.333,333.000 51.456,333.000 51.606 C 333.000 51.756,333.188 52.052,333.417 52.265 C 333.646 52.477,333.833 52.738,333.833 52.845 C 333.833 53.098,335.069 54.333,335.322 54.333 C 335.429 54.333,335.690 54.521,335.902 54.750 C 336.114 54.979,336.373 55.167,336.477 55.167 C 336.582 55.167,336.667 55.242,336.667 55.333 C 336.667 55.425,336.892 55.500,337.167 55.500 C 337.500 55.500,337.667 55.583,337.667 55.750 C 337.667 55.906,337.824 56.000,338.083 56.000 C 338.313 56.000,338.500 56.075,338.500 56.167 C 338.500 56.258,338.762 56.333,339.083 56.333 C 339.404 56.333,339.667 56.408,339.667 56.500 C 339.667 56.592,340.010 56.667,340.429 56.667 C 340.884 56.667,341.291 56.767,341.440 56.917 C 341.820 57.296,382.461 57.296,382.606 56.917 C 382.675 56.737,382.956 56.667,383.601 56.667 C 384.096 56.667,384.500 56.592,384.500 56.500 C 384.500 56.408,384.762 56.333,385.083 56.333 C 385.404 56.333,385.667 56.258,385.667 56.167 C 385.667 56.075,385.854 56.000,386.083 56.000 C 386.343 56.000,386.500 55.906,386.500 55.750 C 386.500 55.594,386.657 55.500,386.917 55.500 C 387.146 55.500,387.333 55.439,387.333 55.364 C 387.333 55.290,387.596 55.126,387.917 55.000 C 388.238 54.874,388.500 54.700,388.500 54.613 C 388.500 54.437,389.347 53.667,389.542 53.667 C 389.610 53.667,389.667 53.588,389.667 53.492 C 389.667 53.397,389.854 53.131,390.083 52.902 C 390.313 52.672,390.500 52.392,390.500 52.279 C 390.500 52.166,390.650 51.965,390.833 51.833 C 391.017 51.701,391.167 51.454,391.167 51.285 C 391.167 51.115,391.279 50.864,391.417 50.726 C 391.554 50.589,391.667 50.294,391.667 50.071 C 391.667 49.849,391.742 49.667,391.833 49.667 C 391.925 49.667,392.000 49.404,392.000 49.083 C 392.000 48.762,392.075 48.500,392.167 48.500 C 392.264 48.500,392.333 47.944,392.333 47.167 L 392.333 45.833 368.667 45.833 C 353.000 45.833,345.000 45.777,345.000 45.667 C 345.000 45.575,344.893 45.500,344.763 45.500 C 344.418 45.500,343.500 44.528,343.500 44.164 C 343.500 43.993,343.425 43.807,343.333 43.750 C 343.225 43.683,343.167 39.720,343.167 32.407 C 343.167 25.024,343.224 21.167,343.333 21.167 C 343.425 21.167,343.500 20.982,343.500 20.756 C 343.500 20.326,344.074 19.667,344.448 19.667 C 344.568 19.667,344.667 19.592,344.667 19.500 C 344.667 19.390,352.722 19.333,368.500 19.333 L 392.333 19.333 392.333 18.167 C 392.333 17.500,392.262 17.000,392.167 17.000 C 392.075 17.000,392.000 16.667,392.000 16.260 C 392.000 15.853,391.925 15.473,391.833 15.417 C 391.742 15.360,391.667 15.176,391.667 15.008 C 391.667 14.840,391.554 14.659,391.417 14.606 C 391.271 14.550,391.167 14.301,391.167 14.005 C 391.167 13.727,391.092 13.500,391.000 13.500 C 390.908 13.500,390.833 13.422,390.833 13.326 C 390.833 13.163,390.703 12.974,390.208 12.423 C 390.094 12.295,390.000 12.144,390.000 12.088 C 390.000 11.915,389.193 11.167,389.008 11.167 C 388.912 11.167,388.833 11.086,388.833 10.988 C 388.833 10.757,388.409 10.333,388.179 10.333 C 388.080 10.333,388.000 10.258,388.000 10.167 C 388.000 10.075,387.858 10.000,387.684 10.000 C 387.511 10.000,387.326 9.887,387.273 9.750 C 387.220 9.612,387.025 9.500,386.839 9.500 C 386.652 9.500,386.500 9.425,386.500 9.333 C 386.500 9.242,386.313 9.167,386.083 9.167 C 385.854 9.167,385.667 9.092,385.667 9.000 C 385.667 8.908,385.404 8.833,385.083 8.833 C 384.676 8.833,384.500 8.758,384.500 8.583 C 384.500 8.391,384.287 8.333,383.583 8.333 C 383.079 8.333,382.667 8.258,382.667 8.167 C 382.667 8.056,375.670 8.000,362.010 8.000 C 348.418 8.000,341.318 8.057,341.250 8.167 M7.667 13.583 L 7.667 18.833 31.816 18.833 C 53.127 18.833,55.976 18.863,56.060 19.083 C 56.113 19.221,56.292 19.333,56.458 19.333 C 56.624 19.333,56.870 19.493,57.005 19.687 C 57.140 19.882,57.344 20.139,57.458 20.259 C 57.713 20.525,57.755 24.000,57.503 24.000 C 57.413 24.000,57.293 24.188,57.235 24.417 C 57.170 24.677,57.013 24.833,56.815 24.833 C 56.642 24.833,56.500 24.908,56.500 25.000 C 56.500 25.110,48.329 25.167,32.321 25.167 C 11.589 25.167,8.109 25.201,7.905 25.405 C 7.708 25.602,7.667 26.611,7.667 31.238 L 7.667 36.833 32.083 36.833 C 48.250 36.833,56.500 36.890,56.500 37.000 C 56.500 37.092,56.762 37.167,57.083 37.167 C 57.407 37.167,57.667 37.251,57.667 37.355 C 57.667 37.459,57.806 37.666,57.976 37.814 C 58.146 37.962,58.339 38.252,58.404 38.458 C 58.469 38.665,58.592 38.833,58.678 38.833 C 58.768 38.833,58.833 40.057,58.833 41.750 C 58.833 43.443,58.768 44.667,58.678 44.667 C 58.592 44.667,58.470 44.832,58.406 45.034 C 58.210 45.651,57.500 46.167,56.844 46.167 C 56.649 46.167,56.500 46.275,56.500 46.417 C 56.500 46.638,53.676 46.667,32.083 46.667 L 7.667 46.667 7.667 52.083 L 7.667 57.500 33.583 57.500 C 50.750 57.500,59.500 57.444,59.500 57.333 C 59.500 57.242,59.915 57.167,60.422 57.167 C 61.088 57.167,61.370 57.097,61.440 56.917 C 61.499 56.762,61.752 56.667,62.101 56.667 C 62.412 56.667,62.667 56.592,62.667 56.500 C 62.667 56.408,62.854 56.333,63.083 56.333 C 63.313 56.333,63.500 56.258,63.500 56.167 C 63.500 56.075,63.670 56.000,63.877 56.000 C 64.084 56.000,64.456 55.813,64.703 55.583 C 64.950 55.354,65.268 55.167,65.409 55.167 C 65.551 55.167,65.667 55.092,65.667 55.000 C 65.667 54.908,65.779 54.833,65.917 54.833 C 66.054 54.833,66.167 54.721,66.167 54.583 C 66.167 54.446,66.245 54.333,66.341 54.333 C 66.437 54.333,66.699 54.149,66.924 53.924 C 67.149 53.699,67.333 53.437,67.333 53.341 C 67.333 53.245,67.414 53.167,67.512 53.167 C 67.743 53.167,68.167 52.743,68.167 52.512 C 68.167 52.414,68.242 52.333,68.333 52.333 C 68.425 52.333,68.500 52.191,68.500 52.018 C 68.500 51.844,68.612 51.659,68.750 51.606 C 68.887 51.554,69.000 51.358,69.000 51.172 C 69.000 50.986,69.075 50.833,69.167 50.833 C 69.258 50.833,69.333 50.688,69.333 50.510 C 69.333 50.332,69.408 50.140,69.500 50.083 C 69.592 50.027,69.667 49.757,69.667 49.485 C 69.667 49.198,69.772 48.949,69.917 48.894 C 70.086 48.828,70.167 48.563,70.167 48.066 C 70.167 47.663,70.242 47.333,70.333 47.333 C 70.433 47.333,70.500 46.694,70.500 45.750 C 70.500 44.806,70.567 44.167,70.667 44.167 C 70.770 44.167,70.833 43.306,70.833 41.917 C 70.833 40.528,70.770 39.667,70.667 39.667 C 70.567 39.667,70.500 39.028,70.500 38.083 C 70.500 37.139,70.433 36.500,70.333 36.500 C 70.242 36.500,70.167 36.237,70.167 35.917 C 70.167 35.509,70.091 35.333,69.917 35.333 C 69.742 35.333,69.667 35.157,69.667 34.750 C 69.667 34.429,69.592 34.167,69.500 34.167 C 69.408 34.167,69.331 34.035,69.328 33.875 C 69.321 33.515,68.946 33.000,68.690 33.000 C 68.585 33.000,68.500 32.862,68.500 32.694 C 68.500 32.376,67.528 31.249,66.867 30.800 C 66.521 30.566,66.508 30.515,66.742 30.282 C 66.884 30.140,67.000 29.906,67.000 29.762 C 67.000 29.618,67.075 29.500,67.167 29.500 C 67.258 29.500,67.333 29.387,67.333 29.250 C 67.333 29.113,67.446 29.000,67.583 29.000 C 67.721 29.000,67.833 28.854,67.833 28.677 C 67.833 28.499,67.908 28.307,68.000 28.250 C 68.092 28.193,68.167 28.001,68.167 27.823 C 68.167 27.646,68.242 27.500,68.333 27.500 C 68.425 27.500,68.500 27.246,68.500 26.934 C 68.500 26.586,68.596 26.332,68.750 26.273 C 68.934 26.203,69.000 25.913,69.000 25.182 C 69.000 24.634,69.075 24.140,69.167 24.083 C 69.389 23.946,69.389 20.167,69.167 20.167 C 69.071 20.167,69.000 19.643,69.000 18.929 C 69.000 18.050,68.927 17.618,68.750 17.440 C 68.610 17.300,68.500 16.893,68.500 16.512 C 68.500 16.139,68.425 15.833,68.333 15.833 C 68.242 15.833,68.167 15.646,68.167 15.417 C 68.167 15.188,68.092 15.000,68.000 15.000 C 67.908 15.000,67.833 14.848,67.833 14.661 C 67.833 14.475,67.721 14.280,67.583 14.227 C 67.446 14.174,67.333 13.989,67.333 13.816 C 67.333 13.642,67.258 13.500,67.167 13.500 C 67.075 13.500,67.000 13.420,67.000 13.321 C 67.000 13.223,66.906 13.038,66.792 12.911 C 66.339 12.406,66.167 12.176,66.167 12.078 C 66.167 11.909,65.703 11.500,65.512 11.500 C 65.414 11.500,65.333 11.425,65.333 11.333 C 65.333 11.242,65.238 11.167,65.120 11.167 C 65.003 11.167,64.789 11.035,64.644 10.875 C 64.178 10.358,63.670 10.000,63.403 10.000 C 63.260 10.000,63.030 9.887,62.893 9.750 C 62.755 9.612,62.461 9.500,62.238 9.500 C 62.015 9.500,61.833 9.425,61.833 9.333 C 61.833 9.242,61.571 9.167,61.250 9.167 C 60.929 9.167,60.667 9.092,60.667 9.000 C 60.667 8.908,60.337 8.833,59.934 8.833 C 59.437 8.833,59.172 8.753,59.106 8.583 C 59.022 8.363,56.004 8.333,33.339 8.333 L 7.667 8.333 7.667 13.583 M80.727 8.583 C 80.672 8.726,80.424 8.833,80.147 8.833 C 79.606 8.833,78.667 9.612,78.667 10.060 C 78.667 10.210,78.592 10.333,78.500 10.333 C 78.393 10.333,78.333 12.000,78.333 15.000 L 78.333 19.667 102.583 19.667 C 118.639 19.667,126.833 19.723,126.833 19.833 C 126.833 19.925,127.096 20.000,127.417 20.000 C 127.779 20.000,128.000 20.081,128.000 20.213 C 128.000 20.330,128.150 20.535,128.333 20.667 C 128.712 20.939,128.876 45.000,128.500 45.000 C 128.408 45.000,128.333 45.112,128.333 45.250 C 128.333 45.389,128.185 45.500,128.000 45.500 C 127.817 45.500,127.667 45.575,127.667 45.667 C 127.667 45.758,127.409 45.833,127.093 45.833 C 126.778 45.833,126.473 45.908,126.417 46.000 C 126.349 46.109,120.168 46.167,108.417 46.167 C 96.665 46.167,90.484 46.224,90.417 46.333 C 90.351 46.439,88.137 46.500,84.323 46.500 L 78.333 46.500 78.333 51.000 C 78.333 53.889,78.393 55.500,78.500 55.500 C 78.592 55.500,78.667 55.633,78.667 55.796 C 78.667 56.109,79.073 56.531,79.549 56.714 C 79.705 56.774,79.833 56.900,79.833 56.995 C 79.833 57.305,131.321 57.227,131.440 56.917 C 131.509 56.737,131.789 56.667,132.434 56.667 C 132.929 56.667,133.333 56.592,133.333 56.500 C 133.333 56.408,133.521 56.333,133.750 56.333 C 133.979 56.333,134.167 56.258,134.167 56.167 C 134.167 56.075,134.354 56.000,134.583 56.000 C 134.843 56.000,135.000 55.906,135.000 55.750 C 135.000 55.611,135.148 55.500,135.333 55.500 C 135.517 55.500,135.667 55.425,135.667 55.333 C 135.667 55.242,135.822 55.167,136.012 55.167 C 136.381 55.167,136.833 54.806,136.833 54.512 C 136.833 54.414,136.909 54.333,137.002 54.333 C 137.310 54.333,138.833 52.668,138.833 52.331 C 138.833 52.148,138.945 52.000,139.083 52.000 C 139.221 52.000,139.333 51.854,139.333 51.677 C 139.333 51.499,139.408 51.307,139.500 51.250 C 139.592 51.193,139.667 51.001,139.667 50.823 C 139.667 50.646,139.742 50.500,139.833 50.500 C 139.925 50.500,140.000 50.284,140.000 50.020 C 140.000 49.757,140.112 49.447,140.250 49.333 C 140.403 49.207,140.500 48.841,140.500 48.396 C 140.500 47.995,140.575 47.667,140.667 47.667 C 140.777 47.667,140.833 42.639,140.833 32.917 C 140.833 23.194,140.777 18.167,140.667 18.167 C 140.575 18.167,140.500 17.844,140.500 17.449 C 140.500 17.054,140.390 16.585,140.255 16.407 C 140.121 16.229,140.008 15.915,140.005 15.708 C 140.002 15.502,139.925 15.333,139.833 15.333 C 139.742 15.333,139.667 15.223,139.667 15.089 C 139.667 14.746,139.140 13.647,138.792 13.260 C 138.631 13.083,138.500 12.889,138.500 12.830 C 138.500 12.771,138.319 12.626,138.097 12.508 C 137.876 12.389,137.658 12.152,137.613 11.980 C 137.568 11.809,137.393 11.616,137.224 11.552 C 136.877 11.420,136.500 11.084,136.500 10.905 C 136.500 10.709,135.937 10.344,135.625 10.339 C 135.465 10.336,135.333 10.258,135.333 10.167 C 135.333 10.075,135.178 10.000,134.988 10.000 C 134.798 10.000,134.530 9.887,134.393 9.750 C 134.255 9.612,134.003 9.500,133.831 9.500 C 133.660 9.500,133.473 9.425,133.417 9.333 C 133.360 9.242,132.981 9.167,132.573 9.167 C 132.166 9.167,131.833 9.092,131.833 9.000 C 131.833 8.901,131.200 8.833,130.268 8.833 C 129.030 8.833,128.682 8.781,128.606 8.583 C 128.461 8.203,80.873 8.203,80.727 8.583 M182.125 14.065 C 181.965 14.187,181.833 14.340,181.833 14.405 C 181.833 14.553,181.395 15.000,181.250 15.000 C 181.111 15.000,180.667 15.444,180.667 15.583 C 180.667 15.722,180.222 16.167,180.083 16.167 C 179.944 16.167,179.500 16.611,179.500 16.750 C 179.500 16.889,179.056 17.333,178.917 17.333 C 178.778 17.333,178.333 17.778,178.333 17.917 C 178.333 18.090,177.873 18.500,177.679 18.500 C 177.580 18.500,177.500 18.556,177.500 18.625 C 177.499 18.838,176.722 19.667,176.522 19.667 C 176.418 19.667,176.333 19.723,176.333 19.792 C 176.333 20.005,175.555 20.833,175.356 20.833 C 175.252 20.833,175.167 20.912,175.167 21.008 C 175.167 21.234,174.400 22.000,174.174 22.000 C 174.078 22.000,174.000 22.085,174.000 22.189 C 174.000 22.388,173.171 23.166,172.958 23.166 C 172.890 23.167,172.833 23.658,172.833 24.259 L 172.833 25.351 174.087 26.592 C 174.776 27.275,175.414 27.833,175.503 27.833 C 175.593 27.833,175.667 27.912,175.667 28.008 C 175.667 28.224,176.429 29.000,176.641 29.000 C 176.727 29.000,176.841 29.113,176.894 29.250 C 176.963 29.431,177.247 29.500,177.920 29.500 L 178.851 29.500 182.259 26.089 C 184.133 24.212,185.667 22.600,185.667 22.505 C 185.667 22.411,185.745 22.333,185.841 22.333 C 186.067 22.333,186.833 21.567,186.833 21.341 C 186.833 21.245,186.911 21.167,187.007 21.167 C 187.586 21.167,188.500 19.848,188.500 19.013 C 188.500 18.548,188.430 18.167,188.345 18.167 C 188.259 18.167,188.138 18.006,188.076 17.810 C 187.923 17.328,184.758 14.167,184.428 14.167 C 184.284 14.167,184.167 14.092,184.167 14.000 C 184.167 13.753,182.464 13.808,182.125 14.065 M176.607 33.917 C 176.470 34.054,176.312 34.167,176.256 34.167 C 176.201 34.167,175.408 34.912,174.494 35.823 L 172.833 37.479 172.833 38.740 C 172.833 39.433,172.890 40.000,172.958 40.000 C 173.171 40.001,174.000 40.778,174.000 40.978 C 174.000 41.082,174.078 41.167,174.174 41.167 C 174.400 41.167,175.167 41.933,175.167 42.159 C 175.167 42.255,175.245 42.333,175.341 42.333 C 175.567 42.333,176.333 43.100,176.333 43.326 C 176.333 43.422,176.412 43.500,176.508 43.500 C 176.734 43.500,177.500 44.266,177.500 44.492 C 177.500 44.588,177.574 44.667,177.664 44.667 C 177.753 44.667,178.802 45.642,179.994 46.833 L 182.160 49.000 183.318 49.000 C 184.125 49.000,184.552 48.924,184.726 48.750 C 184.864 48.612,185.024 48.500,185.082 48.500 C 185.140 48.500,185.933 47.749,186.844 46.831 L 188.500 45.162 188.500 43.942 C 188.500 42.827,188.466 42.705,188.102 42.510 C 187.883 42.393,187.607 42.117,187.490 41.898 C 187.373 41.679,187.205 41.500,187.116 41.500 C 186.937 41.500,186.167 40.655,186.167 40.458 C 186.167 40.390,186.082 40.333,185.978 40.333 C 185.778 40.333,185.001 39.505,185.000 39.292 C 185.000 39.223,184.915 39.167,184.811 39.167 C 184.612 39.167,183.834 38.338,183.834 38.125 C 183.833 38.056,183.765 38.000,183.682 38.000 C 183.599 38.000,182.554 37.025,181.359 35.833 L 179.186 33.667 178.021 33.667 C 177.209 33.667,176.782 33.742,176.607 33.917 M268.500 46.000 C 268.500 46.092,268.350 46.167,268.167 46.167 C 267.983 46.167,267.833 46.271,267.833 46.399 C 267.833 46.527,267.721 46.674,267.583 46.727 C 267.437 46.783,267.333 47.033,267.333 47.328 C 267.333 47.606,267.258 47.833,267.167 47.833 C 266.905 47.833,266.945 54.962,267.208 55.256 C 267.670 55.771,267.833 55.991,267.833 56.100 C 267.833 56.654,267.934 56.656,295.208 56.661 C 312.962 56.665,322.000 56.610,322.000 56.500 C 322.000 56.408,322.080 56.333,322.179 56.333 C 322.473 56.333,322.833 55.881,322.833 55.512 C 322.833 55.322,322.908 55.167,323.000 55.167 C 323.106 55.167,323.167 53.750,323.167 51.250 C 323.167 48.750,323.106 47.333,323.000 47.333 C 322.908 47.333,322.833 47.183,322.833 47.000 C 322.833 46.817,322.758 46.667,322.667 46.667 C 322.575 46.667,322.500 46.554,322.500 46.417 C 322.500 46.279,322.387 46.167,322.250 46.167 C 322.112 46.167,322.000 46.092,322.000 46.000 C 322.000 45.890,312.972 45.833,295.250 45.833 C 277.528 45.833,268.500 45.890,268.500 46.000 " stroke="none" fill="#040404" fill-rule="evenodd"></path><path id="path2" d="" stroke="none" fill="#1001404" fill-rule="evenodd"></path><path id="path3" d="M84.500 46.333 L 78.583 46.423 84.448 46.462 C 88.221 46.486,90.350 46.441,90.417 46.333 C 90.473 46.242,90.496 46.184,90.468 46.205 C 90.440 46.226,87.754 46.284,84.500 46.333 " stroke="none" fill="#441404" fill-rule="evenodd"></path><path id="path4" d="" stroke="none" fill="#041804" fill-rule="evenodd"></path></g></svg>