<?xml version="1.0" standalone="no"?>
<!DOCTYPE svg PUBLIC "-//W3C//DTD SVG 20010904//EN"
 "http://www.w3.org/TR/2001/REC-SVG-20010904/DTD/svg10.dtd">
<svg version="1.0" xmlns="http://www.w3.org/2000/svg"
 width="512.000000pt" height="512.000000pt" viewBox="0 0 512.000000 512.000000"
 preserveAspectRatio="xMidYMid meet">
<metadata>
Created by potrace 1.11, written by Peter Selinger 2001-2013
</metadata>
<g transform="translate(0.000000,512.000000) scale(0.100000,-0.100000)"
fill="#000000" stroke="none">
<path d="M635 5003 c-43 -14 -80 -46 -263 -227 -117 -116 -223 -227 -235 -246
-30 -48 -45 -133 -35 -194 18 -119 4 -103 867 -969 443 -444 807 -810 809
-811 2 -2 -354 -361 -791 -798 -437 -437 -806 -813 -820 -834 -61 -97 -76
-224 -36 -308 24 -52 427 -459 482 -487 88 -46 221 -30 320 38 69 47 2116
2093 2150 2149 43 69 56 133 51 237 -7 143 -22 196 -73 270 -24 36 -1732 1751
-2037 2047 -62 60 -110 97 -149 115 -76 34 -171 42 -240 18z"/>
<path d="M4242 5004 c-50 -22 -1349 -1329 -1363 -1371 -27 -83 -7 -178 55
-261 67 -89 438 -447 499 -482 71 -40 161 -51 219 -26 45 19 1334 1309 1361
1363 27 51 20 141 -15 213 -38 77 -479 515 -553 550 -61 28 -155 34 -203 14z"/>
<path d="M3473 2241 c-73 -25 -130 -73 -369 -308 -225 -222 -249 -255 -260
-355 -12 -105 -16 -99 702 -794 45 -44 209 -203 364 -354 155 -151 288 -281
296 -288 19 -18 91 -42 128 -42 57 0 133 29 193 74 32 25 153 138 269 253 224
221 246 251 260 352 14 107 40 77 -689 785 -56 54 -229 223 -385 375 -155 152
-299 285 -319 296 -49 25 -126 28 -190 6z"/>
</g>
</svg>
